<?xml version="1.0" standalone="no"?>
<!DOCTYPE svg PUBLIC "-//W3C//DTD SVG 20010904//EN"
 "http://www.w3.org/TR/2001/REC-SVG-20010904/DTD/svg10.dtd">
<svg version="1.0" xmlns="http://www.w3.org/2000/svg"
 width="700.000000pt" height="700.000000pt" viewBox="0 0 700.000000 700.000000"
 preserveAspectRatio="xMidYMid meet">
<metadata>
Created by potrace 1.11, written by Peter Selinger 2001-2013
</metadata>
<g transform="translate(0.000000,700.000000) scale(0.100000,-0.100000)"
fill="#000000" stroke="none">
<path d="M1495 6989 c-27 -5 -72 -11 -100 -14 -27 -4 -52 -8 -55 -10 -4 -2
-21 -7 -39 -10 -107 -19 -313 -100 -452 -178 -159 -89 -374 -271 -464 -392
-17 -22 -35 -46 -42 -53 -7 -7 -36 -50 -66 -95 -115 -174 -195 -367 -244 -591
l-27 -121 -3 -1985 c-2 -1902 -1 -1990 17 -2100 23 -140 23 -140 55 -248 30
-97 99 -263 127 -304 10 -14 18 -29 18 -32 0 -5 56 -93 107 -166 9 -14 37 -49
62 -79 229 -275 524 -462 874 -555 209 -56 138 -54 2277 -52 1819 2 1982 3
2060 19 204 41 389 109 551 201 415 238 724 663 813 1121 9 44 19 94 23 110
11 43 14 4001 3 4055 -4 25 -11 65 -15 89 -8 55 -43 200 -54 226 -5 11 -19 49
-32 85 -26 76 -117 263 -130 268 -5 2 -9 8 -9 12 0 27 -147 217 -240 311 -185
187 -433 339 -680 417 -86 28 -132 38 -310 71 -68 12 -3951 13 -4025 0z"/>
</g>
</svg>
